<svg xmlns="http://www.w3.org/2000/svg" width="72" height="150" fill="none" viewBox="0 0 72 150"><path fill="#fff" d="M3.47051 0.751254C2.5047 0.215257 1.28725 0.563686 0.751254 1.52949C0.215257 2.4953 0.563686 3.71275 1.52949 4.24875L3.47051 0.751254ZM50.104 148.637C50.4556 149.684 51.5894 150.248 52.6366 149.896L69.7005 144.167C70.7476 143.815 71.3115 142.682 70.9599 141.634C70.6084 140.587 69.4745 140.023 68.4274 140.375L53.2594 145.467L48.1669 130.3C47.8154 129.252 46.6815 128.689 45.6344 129.04C44.5873 129.392 44.0234 130.525 44.375 131.573L50.104 148.637ZM2.5 2.5C1.52949 4.24875 1.52905 4.2485 1.52897 4.24845C1.52942 4.24871 1.5297 4.24886 1.53061 4.24937C1.53243 4.25038 1.53569 4.2522 1.54037 4.25482C1.54973 4.26007 1.5648 4.26852 1.58545 4.28019C1.62676 4.30352 1.69042 4.33968 1.77553 4.38863C1.94575 4.48651 2.20173 4.6355 2.53628 4.83517C3.20541 5.23454 4.18851 5.83648 5.42795 6.63765C7.90735 8.24033 11.4094 10.6383 15.4741 13.8044C23.6106 20.1422 33.9633 29.5287 42.885 41.7422C60.6704 66.0899 72.8067 101.669 50.2092 147.109L53.7908 148.891C77.1933 101.831 64.5796 64.6601 46.115 39.3828C36.9117 26.7838 26.2644 17.139 17.9321 10.6487C13.7624 7.40081 10.163 4.93545 7.59939 3.27836C6.31735 2.44965 5.29361 1.82259 4.58628 1.40042C4.23259 1.18933 3.95794 1.02942 3.76958 0.921097C3.67539 0.866935 3.60278 0.825668 3.55263 0.797345C3.52756 0.783183 3.5081 0.772258 3.49438 0.764574C3.48752 0.760732 3.48209 0.7577 3.4781 0.75548C3.47611 0.75437 3.47421 0.753313 3.47322 0.752758C3.47168 0.751905 3.47051 0.751254 2.5 2.5Z"/></svg>